<svg width="1920" height="955" xmlns="http://www.w3.org/2000/svg"><g><path d="M-128,-80L-134,390L-85,230Z" fill="#f9f7fe" stroke="#f9f7fe"/><path d="M-128,-80L-85,230L-16,121Z" fill="#fcfbfd" stroke="#fcfbfd"/><path d="M-128,-80L-16,121L48,-58Z" fill="#faf9fc" stroke="#faf9fc"/><path d="M-128,-80L48,-58L169,-86Z" fill="#f7f7fb" stroke="#f7f7fb"/><path d="M-128,-80L169,-86L404,-105Z" fill="#f2f2f8" stroke="#f2f2f8"/><path d="M-128,-80L404,-105L576,-116Z" fill="#ececf5" stroke="#ececf5"/><path d="M48,-58L-16,121L130,110Z" fill="#f6f6fa" stroke="#f6f6fa"/><path d="M48,-58L130,110L215,49Z" fill="#f3f2f8" stroke="#f3f2f8"/><path d="M48,-58L215,49L169,-86Z" fill="#f2f2f8" stroke="#f2f2f8"/><path d="M169,-86L215,49L336,28Z" fill="#eeeef6" stroke="#eeeef6"/><path d="M169,-86L336,28L404,-105Z" fill="#ebebf4" stroke="#ebebf4"/><path d="M404,-105L336,28L535,134Z" fill="#e5e5f1" stroke="#e5e5f1"/><path d="M404,-105L535,134L576,-116Z" fill="#e0e1ef" stroke="#e0e1ef"/><path d="M576,-116L535,134L642,65Z" fill="#dcdcec" stroke="#dcdcec"/><path d="M576,-116L642,65L627,-105Z" fill="#dadaeb" stroke="#dadaeb"/><path d="M576,-116L627,-105L768,-91Z" fill="#d8d7ea" stroke="#d8d7ea"/><path d="M576,-116L768,-91L1019,-113Z" fill="#d1cfe5" stroke="#d1cfe5"/><path d="M627,-105L642,65L768,-91Z" fill="#d7d6e9" stroke="#d7d6e9"/><path d="M768,-91L642,65L807,37Z" fill="#d3d2e7" stroke="#d3d2e7"/><path d="M768,-91L807,37L1019,-113Z" fill="#cccbe3" stroke="#cccbe3"/><path d="M1019,-113L807,37L1010,77Z" fill="#c8c6e1" stroke="#c8c6e1"/><path d="M1019,-113L1010,77L1137,-27Z" fill="#c2c0de" stroke="#c2c0de"/><path d="M1019,-113L1137,-27L1314,-60Z" fill="#bdb9da" stroke="#bdb9da"/><path d="M1019,-113L1314,-60L1824,-84Z" fill="#b4a7d0" stroke="#b4a7d0"/><path d="M1137,-27L1010,77L1165,21Z" fill="#bfbedc" stroke="#bfbedc"/><path d="M1137,-27L1165,21L1314,-60Z" fill="#bbb6d8" stroke="#bbb6d8"/><path d="M1314,-60L1165,21L1220,118Z" fill="#bab3d7" stroke="#bab3d7"/><path d="M1314,-60L1220,118L1403,120Z" fill="#b7add4" stroke="#b7add4"/><path d="M1314,-60L1403,120L1417,-34Z" fill="#b4a8d1" stroke="#b4a8d1"/><path d="M1314,-60L1417,-34L1613,-32Z" fill="#b0a0cd" stroke="#b0a0cd"/><path d="M1314,-60L1613,-32L1824,-84Z" fill="#a891c6" stroke="#a891c6"/><path d="M1417,-34L1403,120L1577,45Z" fill="#af9ecc" stroke="#af9ecc"/><path d="M1417,-34L1577,45L1613,-32Z" fill="#ab96c9" stroke="#ab96c9"/><path d="M1613,-32L1577,45L1696,76Z" fill="#a68cc4" stroke="#a68cc4"/><path d="M1613,-32L1696,76L1736,-28Z" fill="#a386c1" stroke="#a386c1"/><path d="M1613,-32L1736,-28L1824,-84Z" fill="#a081bf" stroke="#a081bf"/><path d="M1736,-28L1696,76L1910,108Z" fill="#9d80bc" stroke="#9d80bc"/><path d="M1736,-28L1910,108L1824,-84Z" fill="#9a80b9" stroke="#9a80b9"/><path d="M1824,-84L1910,108L1979,-31Z" fill="#9680b5" stroke="#9680b5"/><path d="M1979,-31L1910,108L1975,61Z" fill="#9380b2" stroke="#9380b2"/><path d="M1979,-31L1975,61L2067,514Z" fill="#8b7bb0" stroke="#8b7bb0"/><path d="M-16,121L-85,230L102,234Z" fill="#f2f1fb" stroke="#f2f1fb"/><path d="M-16,121L102,234L130,110Z" fill="#f4f3fa" stroke="#f4f3fa"/><path d="M130,110L102,234L251,202Z" fill="#edecf8" stroke="#edecf8"/><path d="M130,110L251,202L215,49Z" fill="#f0f0f7" stroke="#f0f0f7"/><path d="M215,49L251,202L336,28Z" fill="#ededf5" stroke="#ededf5"/><path d="M336,28L251,202L338,220Z" fill="#e9e9f4" stroke="#e9e9f4"/><path d="M336,28L338,220L535,134Z" fill="#e6e6f2" stroke="#e6e6f2"/><path d="M535,134L338,220L577,273Z" fill="#d9daf0" stroke="#d9daf0"/><path d="M535,134L577,273L689,222Z" fill="#d2d3ec" stroke="#d2d3ec"/><path d="M535,134L689,222L642,65Z" fill="#d9d9eb" stroke="#d9d9eb"/><path d="M642,65L689,222L807,37Z" fill="#d5d4e8" stroke="#d5d4e8"/><path d="M807,37L689,222L847,208Z" fill="#cfcde5" stroke="#cfcde5"/><path d="M807,37L847,208L1010,77Z" fill="#cbc9e2" stroke="#cbc9e2"/><path d="M1010,77L847,208L959,213Z" fill="#c5c3e1" stroke="#c5c3e1"/><path d="M1010,77L959,213L1076,211Z" fill="#c1bfdf" stroke="#c1bfdf"/><path d="M1010,77L1076,211L1165,21Z" fill="#c0bfdd" stroke="#c0bfdd"/><path d="M1165,21L1076,211L1220,118Z" fill="#bdbada" stroke="#bdbada"/><path d="M1220,118L1076,211L1216,282Z" fill="#b5b1da" stroke="#b5b1da"/><path d="M1220,118L1216,282L1382,209Z" fill="#b1a9d5" stroke="#b1a9d5"/><path d="M1220,118L1382,209L1403,120Z" fill="#b5aad3" stroke="#b5aad3"/><path d="M1403,120L1382,209L1554,257Z" fill="#aa99cd" stroke="#aa99cd"/><path d="M1403,120L1554,257L1577,45Z" fill="#ac98ca" stroke="#ac98ca"/><path d="M1577,45L1554,257L1666,217Z" fill="#a38bc5" stroke="#a38bc5"/><path d="M1577,45L1666,217L1696,76Z" fill="#a58ac3" stroke="#a58ac3"/><path d="M1696,76L1666,217L1840,252Z" fill="#9b7bbe" stroke="#9b7bbe"/><path d="M1696,76L1840,252L1910,108Z" fill="#9a7fba" stroke="#9a7fba"/><path d="M1910,108L1840,252L1981,256Z" fill="#8d78b5" stroke="#8d78b5"/><path d="M1910,108L1981,256L1975,61Z" fill="#927fb2" stroke="#927fb2"/><path d="M1975,61L1981,256L2067,514Z" fill="#8070b0" stroke="#8070b0"/><path d="M-85,230L-134,390L109,363Z" fill="#e4e2f9" stroke="#e4e2f9"/><path d="M-85,230L109,363L102,234Z" fill="#e7e7fa" stroke="#e7e7fa"/><path d="M102,234L109,363L251,202Z" fill="#e3e3f8" stroke="#e3e3f8"/><path d="M251,202L109,363L251,395Z" fill="#dadaf4" stroke="#dadaf4"/><path d="M251,202L251,395L358,316Z" fill="#d9d9f3" stroke="#d9d9f3"/><path d="M251,202L358,316L338,220Z" fill="#dedff4" stroke="#dedff4"/><path d="M338,220L358,316L514,348Z" fill="#d3d3f0" stroke="#d3d3f0"/><path d="M338,220L514,348L577,273Z" fill="#d1d2ef" stroke="#d1d2ef"/><path d="M577,273L514,348L709,431Z" fill="#c1c0e7" stroke="#c1c0e7"/><path d="M577,273L709,431L689,222Z" fill="#c4c3e8" stroke="#c4c3e8"/><path d="M689,222L709,431L872,357Z" fill="#bab8e3" stroke="#bab8e3"/><path d="M689,222L872,357L847,208Z" fill="#c1c0e4" stroke="#c1c0e4"/><path d="M847,208L872,357L959,213Z" fill="#bdbce2" stroke="#bdbce2"/><path d="M959,213L872,357L975,319Z" fill="#b6b4df" stroke="#b6b4df"/><path d="M959,213L975,319L1076,211Z" fill="#b8b7df" stroke="#b8b7df"/><path d="M1076,211L975,319L1147,381Z" fill="#aeacdc" stroke="#aeacdc"/><path d="M1076,211L1147,381L1216,282Z" fill="#aca8da" stroke="#aca8da"/><path d="M1216,282L1147,381L1326,321Z" fill="#a39cd4" stroke="#a39cd4"/><path d="M1216,282L1326,321L1382,209Z" fill="#a89ed4" stroke="#a89ed4"/><path d="M1382,209L1326,321L1460,321Z" fill="#a396d0" stroke="#a396d0"/><path d="M1382,209L1460,321L1554,257Z" fill="#a190cc" stroke="#a190cc"/><path d="M1554,257L1460,321L1569,428Z" fill="#947ec5" stroke="#947ec5"/><path d="M1554,257L1569,428L1685,327Z" fill="#8f76c1" stroke="#8f76c1"/><path d="M1554,257L1685,327L1666,217Z" fill="#967cc3" stroke="#967cc3"/><path d="M1666,217L1685,327L1840,252Z" fill="#9172be" stroke="#9172be"/><path d="M1840,252L1685,327L1850,400Z" fill="#8669b8" stroke="#8669b8"/><path d="M1840,252L1850,400L1999,350Z" fill="#7f68b2" stroke="#7f68b2"/><path d="M1840,252L1999,350L1981,256Z" fill="#836fb2" stroke="#836fb2"/><path d="M1981,256L1999,350L2067,514Z" fill="#7262a9" stroke="#7262a9"/><path d="M-134,390L-46,1077L-71,876Z" fill="#ae96d2" stroke="#ae96d2"/><path d="M-134,390L-71,876L-62,734Z" fill="#beafe0" stroke="#beafe0"/><path d="M-134,390L-62,734L-40,580Z" fill="#c7c1ea" stroke="#c7c1ea"/><path d="M-134,390L-40,580L23,510Z" fill="#cecbef" stroke="#cecbef"/><path d="M-134,390L23,510L109,363Z" fill="#d6d3f3" stroke="#d6d3f3"/><path d="M109,363L23,510L277,487Z" fill="#cbc9ee" stroke="#cbc9ee"/><path d="M109,363L277,487L251,395Z" fill="#cdcbee" stroke="#cdcbee"/><path d="M251,395L277,487L358,316Z" fill="#cccaed" stroke="#cccaed"/><path d="M358,316L277,487L514,348Z" fill="#c9c8ec" stroke="#c9c8ec"/><path d="M514,348L277,487L341,572Z" fill="#bebce7" stroke="#bebce7"/><path d="M514,348L341,572L565,544Z" fill="#b6b5e3" stroke="#b6b5e3"/><path d="M514,348L565,544L709,431Z" fill="#b6b4e2" stroke="#b6b4e2"/><path d="M709,431L565,544L700,497Z" fill="#aca9dd" stroke="#aca9dd"/><path d="M709,431L700,497L838,580Z" fill="#a5a2d8" stroke="#a5a2d8"/><path d="M709,431L838,580L872,357Z" fill="#a8a4d9" stroke="#a8a4d9"/><path d="M872,357L838,580L987,549Z" fill="#9e9ad4" stroke="#9e9ad4"/><path d="M872,357L987,549L975,319Z" fill="#a7a3d9" stroke="#a7a3d9"/><path d="M975,319L987,549L1147,381Z" fill="#a19dd6" stroke="#a19dd6"/><path d="M1147,381L987,549L1176,568Z" fill="#928fcf" stroke="#928fcf"/><path d="M1147,381L1176,568L1217,547Z" fill="#8f89cc" stroke="#8f89cc"/><path d="M1147,381L1217,547L1379,477Z" fill="#9087cb" stroke="#9087cb"/><path d="M1147,381L1379,477L1326,321Z" fill="#998ece" stroke="#998ece"/><path d="M1326,321L1379,477L1460,321Z" fill="#9788ca" stroke="#9788ca"/><path d="M1460,321L1379,477L1521,502Z" fill="#8b79c3" stroke="#8b79c3"/><path d="M1460,321L1521,502L1569,428Z" fill="#8a74c1" stroke="#8a74c1"/><path d="M1569,428L1521,502L1675,490Z" fill="#7e65ba" stroke="#7e65ba"/><path d="M1569,428L1675,490L1685,327Z" fill="#8266ba" stroke="#8266ba"/><path d="M1685,327L1675,490L1850,400Z" fill="#7e5db6" stroke="#7e5db6"/><path d="M1850,400L1675,490L1857,469Z" fill="#7557b0" stroke="#7557b0"/><path d="M1850,400L1857,469L1999,350Z" fill="#755dad" stroke="#755dad"/><path d="M1999,350L1857,469L2067,514Z" fill="#6c58a7" stroke="#6c58a7"/><path d="M-40,580L-62,734L93,680Z" fill="#baacdf" stroke="#baacdf"/><path d="M-40,580L93,680L23,510Z" fill="#c0b9e6" stroke="#c0b9e6"/><path d="M23,510L93,680L183,629Z" fill="#bbb3e3" stroke="#bbb3e3"/><path d="M23,510L183,629L277,487Z" fill="#bfbde7" stroke="#bfbde7"/><path d="M277,487L183,629L341,572Z" fill="#b8b5e3" stroke="#b8b5e3"/><path d="M341,572L183,629L332,693Z" fill="#b1a7db" stroke="#b1a7db"/><path d="M341,572L332,693L581,635Z" fill="#a99fd8" stroke="#a99fd8"/><path d="M341,572L581,635L565,544Z" fill="#aaa5db" stroke="#aaa5db"/><path d="M565,544L581,635L708,629Z" fill="#a19ad5" stroke="#a19ad5"/><path d="M565,544L708,629L700,497Z" fill="#a3a0d8" stroke="#a3a0d8"/><path d="M700,497L708,629L838,580Z" fill="#9d98d3" stroke="#9d98d3"/><path d="M838,580L708,629L806,659Z" fill="#968bcd" stroke="#968bcd"/><path d="M838,580L806,659L1020,632Z" fill="#9085ca" stroke="#9085ca"/><path d="M838,580L1020,632L987,549Z" fill="#9089cc" stroke="#9089cc"/><path d="M987,549L1020,632L1176,568Z" fill="#8b84c9" stroke="#8b84c9"/><path d="M1176,568L1020,632L1140,649Z" fill="#857bc5" stroke="#857bc5"/><path d="M1176,568L1140,649L1217,547Z" fill="#857bc4" stroke="#857bc4"/><path d="M1217,547L1140,649L1324,706Z" fill="#7f6ebe" stroke="#7f6ebe"/><path d="M1217,547L1324,706L1379,477Z" fill="#8172c0" stroke="#8172c0"/><path d="M1379,477L1324,706L1399,690Z" fill="#7a64b9" stroke="#7a64b9"/><path d="M1379,477L1399,690L1521,502Z" fill="#7d6abc" stroke="#7d6abc"/><path d="M1521,502L1399,690L1603,638Z" fill="#7358b3" stroke="#7358b3"/><path d="M1521,502L1603,638L1675,490Z" fill="#745ab5" stroke="#745ab5"/><path d="M1675,490L1603,638L1686,694Z" fill="#6b48ab" stroke="#6b48ab"/><path d="M1675,490L1686,694L1841,676Z" fill="#653ca6" stroke="#653ca6"/><path d="M1675,490L1841,676L1857,469Z" fill="#694bab" stroke="#694bab"/><path d="M1857,469L1841,676L2067,514Z" fill="#6149a3" stroke="#6149a3"/><path d="M2067,514L1841,676L2071,658Z" fill="#563d99" stroke="#563d99"/><path d="M-62,734L-71,876L75,765Z" fill="#aa91d0" stroke="#aa91d0"/><path d="M-62,734L75,765L93,680Z" fill="#b19dd6" stroke="#b19dd6"/><path d="M93,680L75,765L183,629Z" fill="#b2a2d9" stroke="#b2a2d9"/><path d="M183,629L75,765L233,868Z" fill="#a792d0" stroke="#a792d0"/><path d="M183,629L233,868L332,693Z" fill="#a794d1" stroke="#a794d1"/><path d="M332,693L233,868L415,871Z" fill="#977ec5" stroke="#977ec5"/><path d="M332,693L415,871L512,805Z" fill="#957ec5" stroke="#957ec5"/><path d="M332,693L512,805L581,635Z" fill="#9d8cce" stroke="#9d8cce"/><path d="M581,635L512,805L668,854Z" fill="#907ac3" stroke="#907ac3"/><path d="M581,635L668,854L708,629Z" fill="#9483c8" stroke="#9483c8"/><path d="M708,629L668,854L806,659Z" fill="#8f7cc5" stroke="#8f7cc5"/><path d="M806,659L668,854L806,854Z" fill="#8369ba" stroke="#8369ba"/><path d="M806,659L806,854L1029,798Z" fill="#7f67b9" stroke="#7f67b9"/><path d="M806,659L1029,798L1020,632Z" fill="#8573c0" stroke="#8573c0"/><path d="M1020,632L1029,798L1140,649Z" fill="#806ebe" stroke="#806ebe"/><path d="M1140,649L1029,798L1141,874Z" fill="#735ab2" stroke="#735ab2"/><path d="M1140,649L1141,874L1294,794Z" fill="#6f53af" stroke="#6f53af"/><path d="M1140,649L1294,794L1324,706Z" fill="#745bb3" stroke="#745bb3"/><path d="M1324,706L1294,794L1399,690Z" fill="#6f51ae" stroke="#6f51ae"/><path d="M1399,690L1294,794L1479,876Z" fill="#653fa5" stroke="#653fa5"/><path d="M1399,690L1479,876L1580,842Z" fill="#5d319e" stroke="#5d319e"/><path d="M1399,690L1580,842L1603,638Z" fill="#663ea6" stroke="#663ea6"/><path d="M1603,638L1580,842L1686,694Z" fill="#6033a0" stroke="#6033a0"/><path d="M1686,694L1580,842L1720,853Z" fill="#531f95" stroke="#531f95"/><path d="M1686,694L1720,853L1841,676Z" fill="#562397" stroke="#562397"/><path d="M1841,676L1720,853L1889,794Z" fill="#4d1c90" stroke="#4d1c90"/><path d="M1841,676L1889,794L2071,658Z" fill="#4f2a92" stroke="#4f2a92"/><path d="M2071,658L1889,794L2037,870Z" fill="#431c86" stroke="#431c86"/><path d="M2071,658L2037,870L2039,954Z" fill="#39107d" stroke="#39107d"/><path d="M2071,658L2039,954L2059,1117Z" fill="#2d0072" stroke="#2d0072"/><path d="M-71,876L-46,1077L-34,1028Z" fill="#8f7ab7" stroke="#8f7ab7"/><path d="M-71,876L-34,1028L117,958Z" fill="#9278bb" stroke="#9278bb"/><path d="M-71,876L117,958L75,765Z" fill="#9d7ec5" stroke="#9d7ec5"/><path d="M75,765L117,958L233,868Z" fill="#997ac3" stroke="#997ac3"/><path d="M233,868L117,958L184,949Z" fill="#8e71ba" stroke="#8e71ba"/><path d="M233,868L184,949L334,1035Z" fill="#886eb6" stroke="#886eb6"/><path d="M233,868L334,1035L415,871Z" fill="#876ab7" stroke="#876ab7"/><path d="M415,871L334,1035L476,917Z" fill="#8166b3" stroke="#8166b3"/><path d="M415,871L476,917L512,805Z" fill="#886bbb" stroke="#886bbb"/><path d="M512,805L476,917L668,854Z" fill="#8567b9" stroke="#8567b9"/><path d="M668,854L476,917L649,993Z" fill="#795caf" stroke="#795caf"/><path d="M668,854L649,993L788,919Z" fill="#7355ac" stroke="#7355ac"/><path d="M668,854L788,919L806,854Z" fill="#7756b0" stroke="#7756b0"/><path d="M806,854L788,919L947,919Z" fill="#6f4caa" stroke="#6f4caa"/><path d="M806,854L947,919L1029,798Z" fill="#7051ad" stroke="#7051ad"/><path d="M1029,798L947,919L1141,874Z" fill="#6949a9" stroke="#6949a9"/><path d="M1141,874L947,919L1140,1023Z" fill="#5d409f" stroke="#5d409f"/><path d="M1141,874L1140,1023L1226,1005Z" fill="#553998" stroke="#553998"/><path d="M1141,874L1226,1005L1294,794Z" fill="#5d369f" stroke="#5d369f"/><path d="M1294,794L1226,1005L1483,938Z" fill="#562c98" stroke="#562c98"/><path d="M1294,794L1483,938L1479,876Z" fill="#572999" stroke="#572999"/><path d="M1479,876L1483,938L1580,842Z" fill="#4f1b92" stroke="#4f1b92"/><path d="M1580,842L1483,938L1550,1000Z" fill="#49168b" stroke="#49168b"/><path d="M1580,842L1550,1000L1681,976Z" fill="#430f86" stroke="#430f86"/><path d="M1580,842L1681,976L1720,853Z" fill="#460a89" stroke="#460a89"/><path d="M1720,853L1681,976L1930,982Z" fill="#39007d" stroke="#39007d"/><path d="M1720,853L1930,982L1889,794Z" fill="#3e0582" stroke="#3e0582"/><path d="M1889,794L1930,982L2037,870Z" fill="#36047b" stroke="#36047b"/><path d="M2037,870L1930,982L2039,954Z" fill="#2c0072" stroke="#2c0072"/><path d="M-34,1028L-46,1077L124,1181Z" fill="#7e78a9" stroke="#7e78a9"/><path d="M-34,1028L124,1181L117,958Z" fill="#8175ad" stroke="#8175ad"/><path d="M117,958L124,1181L184,949Z" fill="#8273ae" stroke="#8273ae"/><path d="M184,949L124,1181L283,1107Z" fill="#7870a7" stroke="#7870a7"/><path d="M184,949L283,1107L334,1035Z" fill="#7c6eab" stroke="#7c6eab"/><path d="M334,1035L283,1107L370,1078Z" fill="#736aa5" stroke="#736aa5"/><path d="M334,1035L370,1078L476,917Z" fill="#7867aa" stroke="#7867aa"/><path d="M476,917L370,1078L571,1119Z" fill="#7063a5" stroke="#7063a5"/><path d="M476,917L571,1119L649,993Z" fill="#6f5ea6" stroke="#6f5ea6"/><path d="M649,993L571,1119L622,1097Z" fill="#645b9c" stroke="#645b9c"/><path d="M649,993L622,1097L862,1130Z" fill="#5e5499" stroke="#5e5499"/><path d="M649,993L862,1130L788,919Z" fill="#63519e" stroke="#63519e"/><path d="M788,919L862,1130L947,919Z" fill="#614b9e" stroke="#614b9e"/><path d="M947,919L862,1130L1016,1149Z" fill="#524792" stroke="#524792"/><path d="M947,919L1016,1149L1140,1023Z" fill="#524294" stroke="#524294"/><path d="M1140,1023L1016,1149L1157,1143Z" fill="#443e89" stroke="#443e89"/><path d="M1140,1023L1157,1143L1226,1005Z" fill="#48398d" stroke="#48398d"/><path d="M1226,1005L1157,1143L1303,1125Z" fill="#413486" stroke="#413486"/><path d="M1226,1005L1303,1125L1483,938Z" fill="#462b8a" stroke="#462b8a"/><path d="M1483,938L1303,1125L1457,1177Z" fill="#3a247f" stroke="#3a247f"/><path d="M1483,938L1457,1177L1550,1000Z" fill="#3b1b80" stroke="#3b1b80"/><path d="M1550,1000L1457,1177L1570,1173Z" fill="#2f1875" stroke="#2f1875"/><path d="M1550,1000L1570,1173L1684,1081Z" fill="#2f0f75" stroke="#2f0f75"/><path d="M1550,1000L1684,1081L1681,976Z" fill="#360b7b" stroke="#360b7b"/><path d="M1681,976L1684,1081L1930,982Z" fill="#2f0075" stroke="#2f0075"/><path d="M1930,982L1684,1081L1822,1169Z" fill="#24006a" stroke="#24006a"/><path d="M1930,982L1822,1169L2059,1117Z" fill="#1b0062" stroke="#1b0062"/><path d="M1930,982L2059,1117L2039,954Z" fill="#210067" stroke="#210067"/><path d="M124,1181L1457,1177L1016,1149Z" fill="#4d4b88" stroke="#4d4b88"/><path d="M124,1181L1016,1149L862,1130Z" fill="#585790" stroke="#585790"/><path d="M124,1181L862,1130L571,1119Z" fill="#606097" stroke="#606097"/><path d="M124,1181L571,1119L283,1107Z" fill="#6a6b9d" stroke="#6a6b9d"/><path d="M283,1107L571,1119L370,1078Z" fill="#6a669f" stroke="#6a669f"/><path d="M571,1119L862,1130L622,1097Z" fill="#595694" stroke="#595694"/><path d="M1016,1149L1457,1177L1157,1143Z" fill="#3c367f" stroke="#3c367f"/><path d="M1157,1143L1457,1177L1303,1125Z" fill="#382e7c" stroke="#382e7c"/><path d="M1457,1177L1822,1169L1570,1173Z" fill="#270e69" stroke="#270e69"/><path d="M1570,1173L1822,1169L1684,1081Z" fill="#230569" stroke="#230569"/></g></svg>