<svg width="1920" height="912" xmlns="http://www.w3.org/2000/svg"><g><path d="M-135,-79L-134,703L-124,182Z" fill="#e18c7a" stroke="#e18c7a"/><path d="M-135,-79L-124,182L-90,84Z" fill="#e14a58" stroke="#e14a58"/><path d="M-135,-79L-90,84L93,-51Z" fill="#e73855" stroke="#e73855"/><path d="M-135,-79L93,-51L207,-110Z" fill="#ed2f54" stroke="#ed2f54"/><path d="M93,-51L-90,84L31,95Z" fill="#eb5559" stroke="#eb5559"/><path d="M93,-51L31,95L235,116Z" fill="#f2685b" stroke="#f2685b"/><path d="M93,-51L235,116L207,-110Z" fill="#f6585a" stroke="#f6585a"/><path d="M207,-110L235,116L368,-89Z" fill="#fd615a" stroke="#fd615a"/><path d="M207,-110L368,-89L714,-111Z" fill="#fd5e65" stroke="#fd5e65"/><path d="M207,-110L714,-111L1688,-125Z" fill="#fc7f86" stroke="#fc7f86"/><path d="M368,-89L235,116L429,107Z" fill="#fe8664" stroke="#fe8664"/><path d="M368,-89L429,107L484,-37Z" fill="#fe8069" stroke="#fe8069"/><path d="M368,-89L484,-37L714,-111Z" fill="#fe756f" stroke="#fe756f"/><path d="M484,-37L429,107L550,42Z" fill="#fe9a71" stroke="#fe9a71"/><path d="M484,-37L550,42L714,-111Z" fill="#fe8b76" stroke="#fe8b76"/><path d="M714,-111L550,42L729,21Z" fill="#fe967f" stroke="#fe967f"/><path d="M714,-111L729,21L801,-53Z" fill="#ff9086" stroke="#ff9086"/><path d="M714,-111L801,-53L988,-101Z" fill="#fe858a" stroke="#fe858a"/><path d="M714,-111L988,-101L1170,-107Z" fill="#f87d80" stroke="#f87d80"/><path d="M714,-111L1170,-107L1688,-125Z" fill="#e57575" stroke="#e57575"/><path d="M801,-53L729,21L799,30Z" fill="#ffa28a" stroke="#ffa28a"/><path d="M801,-53L799,30L934,85Z" fill="#feac8e" stroke="#feac8e"/><path d="M801,-53L934,85L988,-101Z" fill="#fb9b88" stroke="#fb9b88"/><path d="M988,-101L934,85L1168,29Z" fill="#f5a280" stroke="#f5a280"/><path d="M988,-101L1168,29L1170,-107Z" fill="#f18a79" stroke="#f18a79"/><path d="M1170,-107L1168,29L1229,-67Z" fill="#e58979" stroke="#e58979"/><path d="M1170,-107L1229,-67L1391,-70Z" fill="#da7977" stroke="#da7977"/><path d="M1170,-107L1391,-70L1688,-125Z" fill="#c36578" stroke="#c36578"/><path d="M1229,-67L1168,29L1325,129Z" fill="#dea27c" stroke="#dea27c"/><path d="M1229,-67L1325,129L1391,-70Z" fill="#d4927a" stroke="#d4927a"/><path d="M1391,-70L1325,129L1461,92Z" fill="#c89f7d" stroke="#c89f7d"/><path d="M1391,-70L1461,92L1618,-26Z" fill="#b57f82" stroke="#b57f82"/><path d="M1391,-70L1618,-26L1688,-125Z" fill="#a75a84" stroke="#a75a84"/><path d="M1618,-26L1461,92L1602,44Z" fill="#a88289" stroke="#a88289"/><path d="M1618,-26L1602,44L1767,103Z" fill="#957591" stroke="#957591"/><path d="M1618,-26L1767,103L1827,-66Z" fill="#875e95" stroke="#875e95"/><path d="M1618,-26L1827,-66L1688,-125Z" fill="#8b468f" stroke="#8b468f"/><path d="M1688,-125L1827,-66L1994,-102Z" fill="#7f2b97" stroke="#7f2b97"/><path d="M1827,-66L1767,103L1911,22Z" fill="#7f569d" stroke="#7f569d"/><path d="M1827,-66L1911,22L1994,-102Z" fill="#7f33a0" stroke="#7f33a0"/><path d="M1994,-102L1911,22L1971,103Z" fill="#7f40a6" stroke="#7f40a6"/><path d="M1994,-102L1971,103L1983,228Z" fill="#8055aa" stroke="#8055aa"/><path d="M1994,-102L1983,228L2021,401Z" fill="#8076b9" stroke="#8076b9"/><path d="M-90,84L-124,182L31,95Z" fill="#e6675b" stroke="#e6675b"/><path d="M31,95L-124,182L48,230Z" fill="#e97e65" stroke="#e97e65"/><path d="M31,95L48,230L235,116Z" fill="#f28863" stroke="#f28863"/><path d="M235,116L48,230L204,283Z" fill="#f6a572" stroke="#f6a572"/><path d="M235,116L204,283L331,240Z" fill="#fcb474" stroke="#fcb474"/><path d="M235,116L331,240L429,107Z" fill="#feab6c" stroke="#feab6c"/><path d="M429,107L331,240L486,254Z" fill="#fec87f" stroke="#fec87f"/><path d="M429,107L486,254L550,42Z" fill="#ffbd76" stroke="#ffbd76"/><path d="M550,42L486,254L683,221Z" fill="#ffd487" stroke="#ffd487"/><path d="M550,42L683,221L729,21Z" fill="#ffbd83" stroke="#ffbd83"/><path d="M729,21L683,221L799,30Z" fill="#ffc08b" stroke="#ffc08b"/><path d="M799,30L683,221L766,243Z" fill="#ffdb96" stroke="#ffdb96"/><path d="M799,30L766,243L934,85Z" fill="#ffd094" stroke="#ffd094"/><path d="M934,85L766,243L939,242Z" fill="#fde79f" stroke="#fde79f"/><path d="M934,85L939,242L1176,191Z" fill="#f6de91" stroke="#f6de91"/><path d="M934,85L1176,191L1168,29Z" fill="#f3c480" stroke="#f3c480"/><path d="M1168,29L1176,191L1325,129Z" fill="#e1c280" stroke="#e1c280"/><path d="M1325,129L1176,191L1229,209Z" fill="#ded68b" stroke="#ded68b"/><path d="M1325,129L1229,209L1379,221Z" fill="#d5d58d" stroke="#d5d58d"/><path d="M1325,129L1379,221L1461,92Z" fill="#c9c285" stroke="#c9c285"/><path d="M1461,92L1379,221L1575,187Z" fill="#b9bd8f" stroke="#b9bd8f"/><path d="M1461,92L1575,187L1602,44Z" fill="#ab9e8b" stroke="#ab9e8b"/><path d="M1602,44L1575,187L1767,103Z" fill="#989193" stroke="#989193"/><path d="M1767,103L1575,187L1774,256Z" fill="#8ea1a4" stroke="#8ea1a4"/><path d="M1767,103L1774,256L1912,199Z" fill="#8093ae" stroke="#8093ae"/><path d="M1767,103L1912,199L1911,22Z" fill="#8072a3" stroke="#8072a3"/><path d="M1911,22L1912,199L1971,103Z" fill="#8068a8" stroke="#8068a8"/><path d="M1971,103L1912,199L1983,228Z" fill="#807cb5" stroke="#807cb5"/><path d="M-124,182L-134,703L-87,498Z" fill="#e28e8b" stroke="#e28e8b"/><path d="M-124,182L-87,498L-83,420Z" fill="#e39192" stroke="#e39192"/><path d="M-124,182L-83,420L48,230Z" fill="#e6977e" stroke="#e6977e"/><path d="M48,230L-83,420L80,367Z" fill="#eba18e" stroke="#eba18e"/><path d="M48,230L80,367L204,283Z" fill="#f2af85" stroke="#f2af85"/><path d="M204,283L80,367L195,420Z" fill="#f6b695" stroke="#f6b695"/><path d="M204,283L195,420L404,342Z" fill="#fdc595" stroke="#fdc595"/><path d="M204,283L404,342L331,240Z" fill="#fecc8a" stroke="#fecc8a"/><path d="M331,240L404,342L486,254Z" fill="#feda90" stroke="#feda90"/><path d="M486,254L404,342L485,354Z" fill="#fee29e" stroke="#fee29e"/><path d="M486,254L485,354L683,221Z" fill="#fff09d" stroke="#fff09d"/><path d="M683,221L485,354L682,435Z" fill="#fff4b1" stroke="#fff4b1"/><path d="M683,221L682,435L766,243Z" fill="#fff9b2" stroke="#fff9b2"/><path d="M766,243L682,435L840,337Z" fill="#fffcc0" stroke="#fffcc0"/><path d="M766,243L840,337L939,242Z" fill="#feffb4" stroke="#feffb4"/><path d="M939,242L840,337L925,375Z" fill="#fcfebb" stroke="#fcfebb"/><path d="M939,242L925,375L1179,399Z" fill="#f7fcb8" stroke="#f7fcb8"/><path d="M939,242L1179,399L1176,191Z" fill="#f3faa3" stroke="#f3faa3"/><path d="M1176,191L1179,399L1229,209Z" fill="#e5f5a0" stroke="#e5f5a0"/><path d="M1229,209L1179,399L1230,431Z" fill="#e3f4b3" stroke="#e3f4b3"/><path d="M1229,209L1230,431L1379,221Z" fill="#d9f0a4" stroke="#d9f0a4"/><path d="M1379,221L1230,431L1462,397Z" fill="#ceebb2" stroke="#ceebb2"/><path d="M1379,221L1462,397L1575,187Z" fill="#b9dca7" stroke="#b9dca7"/><path d="M1575,187L1462,397L1578,386Z" fill="#add3b9" stroke="#add3b9"/><path d="M1575,187L1578,386L1666,326Z" fill="#a0c9b8" stroke="#a0c9b8"/><path d="M1575,187L1666,326L1774,256Z" fill="#94bfb3" stroke="#94bfb3"/><path d="M1774,256L1666,326L1826,324Z" fill="#84b4c4" stroke="#84b4c4"/><path d="M1774,256L1826,324L1912,199Z" fill="#80a8c0" stroke="#80a8c0"/><path d="M1912,199L1826,324L1983,228Z" fill="#809cc3" stroke="#809cc3"/><path d="M1983,228L1826,324L2021,401Z" fill="#809ad5" stroke="#809ad5"/><path d="M-83,420L-87,498L116,506Z" fill="#e99c8a" stroke="#e99c8a"/><path d="M-83,420L116,506L80,367Z" fill="#eda493" stroke="#eda493"/><path d="M80,367L116,506L195,420Z" fill="#f4b295" stroke="#f4b295"/><path d="M195,420L116,506L209,484Z" fill="#f7b88e" stroke="#f7b88e"/><path d="M195,420L209,484L339,540Z" fill="#fcc28e" stroke="#fcc28e"/><path d="M195,420L339,540L404,342Z" fill="#fecc9a" stroke="#fecc9a"/><path d="M404,342L339,540L485,354Z" fill="#fedba7" stroke="#fedba7"/><path d="M485,354L339,540L523,535Z" fill="#fee19f" stroke="#fee19f"/><path d="M485,354L523,535L682,435Z" fill="#fff1b0" stroke="#fff1b0"/><path d="M682,435L523,535L688,500Z" fill="#fff4ae" stroke="#fff4ae"/><path d="M682,435L688,500L765,519Z" fill="#fff9b6" stroke="#fff9b6"/><path d="M682,435L765,519L840,337Z" fill="#fffcc5" stroke="#fffcc5"/><path d="M840,337L765,519L925,375Z" fill="#feffcd" stroke="#feffcd"/><path d="M925,375L765,519L1028,497Z" fill="#fbfebf" stroke="#fbfebf"/><path d="M925,375L1028,497L1179,399Z" fill="#f5fbbc" stroke="#f5fbbc"/><path d="M1179,399L1028,497L1166,502Z" fill="#eff9b1" stroke="#eff9b1"/><path d="M1179,399L1166,502L1230,431Z" fill="#e5f5b4" stroke="#e5f5b4"/><path d="M1230,431L1166,502L1262,469Z" fill="#e2f3af" stroke="#e2f3af"/><path d="M1230,431L1262,469L1462,397Z" fill="#d4edb5" stroke="#d4edb5"/><path d="M1462,397L1262,469L1451,470Z" fill="#c8e7b4" stroke="#c8e7b4"/><path d="M1462,397L1451,470L1578,386Z" fill="#b5d9c1" stroke="#b5d9c1"/><path d="M1578,386L1451,470L1588,491Z" fill="#add3be" stroke="#add3be"/><path d="M1578,386L1588,491L1666,326Z" fill="#9fc9cc" stroke="#9fc9cc"/><path d="M1666,326L1588,491L1747,572Z" fill="#95c1c5" stroke="#95c1c5"/><path d="M1666,326L1747,572L1840,511Z" fill="#85b5cb" stroke="#85b5cb"/><path d="M1666,326L1840,511L1826,324Z" fill="#80b1da" stroke="#80b1da"/><path d="M1826,324L1840,511L2021,401Z" fill="#80a1df" stroke="#80a1df"/><path d="M2021,401L1840,511L2019,513Z" fill="#8098d9" stroke="#8098d9"/><path d="M2021,401L2019,513L2020,822Z" fill="#708fd4" stroke="#708fd4"/><path d="M-87,498L-134,703L43,718Z" fill="#c5967f" stroke="#c5967f"/><path d="M-87,498L43,718L116,506Z" fill="#dda282" stroke="#dda282"/><path d="M116,506L43,718L261,650Z" fill="#d7b283" stroke="#d7b283"/><path d="M116,506L261,650L209,484Z" fill="#f1bb85" stroke="#f1bb85"/><path d="M209,484L261,650L339,540Z" fill="#f3c687" stroke="#f3c687"/><path d="M339,540L261,650L399,676Z" fill="#e1cf8b" stroke="#e1cf8b"/><path d="M339,540L399,676L523,535Z" fill="#eddc94" stroke="#eddc94"/><path d="M523,535L399,676L489,711Z" fill="#dde397" stroke="#dde397"/><path d="M523,535L489,711L626,654Z" fill="#dfef9e" stroke="#dfef9e"/><path d="M523,535L626,654L688,500Z" fill="#f3f3a5" stroke="#f3f3a5"/><path d="M688,500L626,654L765,519Z" fill="#f5f8ad" stroke="#f5f8ad"/><path d="M765,519L626,654L774,732Z" fill="#dff9af" stroke="#dff9af"/><path d="M765,519L774,732L836,775Z" fill="#cff4b9" stroke="#cff4b9"/><path d="M765,519L836,775L1034,730Z" fill="#cdf6b8" stroke="#cdf6b8"/><path d="M765,519L1034,730L1028,497Z" fill="#e9fdb1" stroke="#e9fdb1"/><path d="M1028,497L1034,730L1150,683Z" fill="#d3faa7" stroke="#d3faa7"/><path d="M1028,497L1150,683L1166,502Z" fill="#e5f9a6" stroke="#e5f9a6"/><path d="M1166,502L1150,683L1235,698Z" fill="#c9f5a4" stroke="#c9f5a4"/><path d="M1166,502L1235,698L1262,469Z" fill="#d7f3a5" stroke="#d7f3a5"/><path d="M1262,469L1235,698L1394,666Z" fill="#beeea4" stroke="#beeea4"/><path d="M1262,469L1394,666L1451,470Z" fill="#c9eaa4" stroke="#c9eaa4"/><path d="M1451,470L1394,666L1557,711Z" fill="#a0dcaa" stroke="#a0dcaa"/><path d="M1451,470L1557,711L1588,491Z" fill="#a4d4b0" stroke="#a4d4b0"/><path d="M1588,491L1557,711L1747,572Z" fill="#88c5b7" stroke="#88c5b7"/><path d="M1747,572L1557,711L1747,705Z" fill="#68babc" stroke="#68babc"/><path d="M1747,572L1747,705L1826,685Z" fill="#5bb0c1" stroke="#5bb0c1"/><path d="M1747,572L1826,685L1840,511Z" fill="#6dadc4" stroke="#6dadc4"/><path d="M1840,511L1826,685L2015,698Z" fill="#61a0ca" stroke="#61a0ca"/><path d="M1840,511L2015,698L2019,513Z" fill="#7198d0" stroke="#7198d0"/><path d="M2019,513L2015,698L2020,822Z" fill="#4f85d8" stroke="#4f85d8"/><path d="M-134,703L-45,1176L-57,968Z" fill="#652aa6" stroke="#652aa6"/><path d="M-134,703L-57,968L-69,854Z" fill="#664fa2" stroke="#664fa2"/><path d="M-134,703L-69,854L43,718Z" fill="#8f7193" stroke="#8f7193"/><path d="M43,718L-69,854L112,813Z" fill="#84709b" stroke="#84709b"/><path d="M43,718L112,813L170,770Z" fill="#978597" stroke="#978597"/><path d="M43,718L170,770L261,650Z" fill="#b4a08e" stroke="#b4a08e"/><path d="M261,650L170,770L316,861Z" fill="#a49c99" stroke="#a49c99"/><path d="M261,650L316,861L399,676Z" fill="#b5b298" stroke="#b5b298"/><path d="M399,676L316,861L491,840Z" fill="#97a8ab" stroke="#97a8ab"/><path d="M399,676L491,840L489,711Z" fill="#afc2a7" stroke="#afc2a7"/><path d="M489,711L491,840L621,789Z" fill="#9ebfb4" stroke="#9ebfb4"/><path d="M489,711L621,789L626,654Z" fill="#bbd9ad" stroke="#bbd9ad"/><path d="M626,654L621,789L774,732Z" fill="#b8dcb8" stroke="#b8dcb8"/><path d="M774,732L621,789L836,775Z" fill="#a5d2c6" stroke="#a5d2c6"/><path d="M1034,730L836,775L955,846Z" fill="#97cec8" stroke="#97cec8"/><path d="M1034,730L955,846L1168,857Z" fill="#85c2c5" stroke="#85c2c5"/><path d="M1034,730L1168,857L1150,683Z" fill="#9ad4b8" stroke="#9ad4b8"/><path d="M1150,683L1168,857L1235,698Z" fill="#96d3b6" stroke="#96d3b6"/><path d="M1235,698L1168,857L1333,835Z" fill="#75bebf" stroke="#75bebf"/><path d="M1235,698L1333,835L1406,782Z" fill="#75c2b9" stroke="#75c2b9"/><path d="M1235,698L1406,782L1394,666Z" fill="#8dd5ae" stroke="#8dd5ae"/><path d="M1394,666L1406,782L1557,711Z" fill="#79c6b5" stroke="#79c6b5"/><path d="M1557,711L1406,782L1597,833Z" fill="#51a9c5" stroke="#51a9c5"/><path d="M1557,711L1597,833L1727,783Z" fill="#3d9acd" stroke="#3d9acd"/><path d="M1557,711L1727,783L1747,705Z" fill="#48a2c9" stroke="#48a2c9"/><path d="M1747,705L1727,783L1826,685Z" fill="#3b99cd" stroke="#3b99cd"/><path d="M1826,685L1727,783L1884,865Z" fill="#207fdb" stroke="#207fdb"/><path d="M1826,685L1884,865L2015,698Z" fill="#2d7cdd" stroke="#2d7cdd"/><path d="M2015,698L1884,865L2020,822Z" fill="#1763ea" stroke="#1763ea"/><path d="M-69,854L-57,968L112,813Z" fill="#6a4ea7" stroke="#6a4ea7"/><path d="M112,813L-57,968L107,1004Z" fill="#6f44a8" stroke="#6f44a8"/><path d="M112,813L107,1004L226,927Z" fill="#7557aa" stroke="#7557aa"/><path d="M112,813L226,927L170,770Z" fill="#7a75a6" stroke="#7a75a6"/><path d="M170,770L226,927L316,861Z" fill="#7c79aa" stroke="#7c79aa"/><path d="M316,861L226,927L355,996Z" fill="#7e68af" stroke="#7e68af"/><path d="M316,861L355,996L491,840Z" fill="#7f7fb7" stroke="#7f7fb7"/><path d="M491,840L355,996L524,1031Z" fill="#7f76bd" stroke="#7f76bd"/><path d="M491,840L524,1031L683,995Z" fill="#7f85c7" stroke="#7f85c7"/><path d="M491,840L683,995L621,789Z" fill="#7fa3ca" stroke="#7fa3ca"/><path d="M621,789L683,995L836,775Z" fill="#80b2d3" stroke="#80b2d3"/><path d="M836,775L683,995L780,1033Z" fill="#8098da" stroke="#8098da"/><path d="M836,775L780,1033L925,929Z" fill="#7fa2de" stroke="#7fa2de"/><path d="M836,775L925,929L955,846Z" fill="#7cb7d7" stroke="#7cb7d7"/><path d="M955,846L925,929L1110,992Z" fill="#789cd3" stroke="#789cd3"/><path d="M955,846L1110,992L1168,857Z" fill="#74a3cd" stroke="#74a3cd"/><path d="M1168,857L1110,992L1326,1000Z" fill="#658acb" stroke="#658acb"/><path d="M1168,857L1326,1000L1333,835Z" fill="#5a98ca" stroke="#5a98ca"/><path d="M1333,835L1326,1000L1400,962Z" fill="#4f88ca" stroke="#4f88ca"/><path d="M1333,835L1400,962L1406,782Z" fill="#4b9fca" stroke="#4b9fca"/><path d="M1406,782L1400,962L1597,833Z" fill="#3b93d0" stroke="#3b93d0"/><path d="M1597,833L1400,962L1594,987Z" fill="#2f72d6" stroke="#2f72d6"/><path d="M1597,833L1594,987L1712,970Z" fill="#1b62dd" stroke="#1b62dd"/><path d="M1597,833L1712,970L1727,783Z" fill="#1374e1" stroke="#1374e1"/><path d="M1727,783L1712,970L1884,865Z" fill="#0163e8" stroke="#0163e8"/><path d="M1884,865L1712,970L1840,983Z" fill="#0046eb" stroke="#0046eb"/><path d="M1884,865L1840,983L1981,989Z" fill="#0037f1" stroke="#0037f1"/><path d="M1884,865L1981,989L2020,822Z" fill="#0042f6" stroke="#0042f6"/><path d="M2020,822L1981,989L1975,1157Z" fill="#001bf8" stroke="#001bf8"/><path d="M-57,968L-45,1176L37,1092Z" fill="#691ca7" stroke="#691ca7"/><path d="M-57,968L37,1092L107,1004Z" fill="#6d23a8" stroke="#6d23a8"/><path d="M107,1004L37,1092L225,1073Z" fill="#7331a9" stroke="#7331a9"/><path d="M107,1004L225,1073L226,927Z" fill="#783eab" stroke="#783eab"/><path d="M226,927L225,1073L355,996Z" fill="#7e4aac" stroke="#7e4aac"/><path d="M355,996L225,1073L423,1097Z" fill="#7e50b2" stroke="#7e50b2"/><path d="M355,996L423,1097L524,1031Z" fill="#7f5fbb" stroke="#7f5fbb"/><path d="M524,1031L423,1097L556,1150Z" fill="#7f69c1" stroke="#7f69c1"/><path d="M524,1031L556,1150L683,995Z" fill="#7f72c9" stroke="#7f72c9"/><path d="M683,995L556,1150L662,1170Z" fill="#7f75cd" stroke="#7f75cd"/><path d="M683,995L662,1170L780,1033Z" fill="#8079d4" stroke="#8079d4"/><path d="M780,1033L662,1170L794,1126Z" fill="#807bd8" stroke="#807bd8"/><path d="M780,1033L794,1126L925,929Z" fill="#7f80df" stroke="#7f80df"/><path d="M925,929L794,1126L1021,1153Z" fill="#7c7ed9" stroke="#7c7ed9"/><path d="M925,929L1021,1153L1110,992Z" fill="#777cd1" stroke="#777cd1"/><path d="M1110,992L1021,1153L1103,1142Z" fill="#747bcd" stroke="#747bcd"/><path d="M1110,992L1103,1142L1215,1161Z" fill="#6d78cb" stroke="#6d78cb"/><path d="M1110,992L1215,1161L1326,1000Z" fill="#6274cb" stroke="#6274cb"/><path d="M1326,1000L1215,1161L1391,1128Z" fill="#556eca" stroke="#556eca"/><path d="M1326,1000L1391,1128L1400,962Z" fill="#4d6bca" stroke="#4d6bca"/><path d="M1400,962L1391,1128L1555,1096Z" fill="#3e60d0" stroke="#3e60d0"/><path d="M1400,962L1555,1096L1594,987Z" fill="#3256d5" stroke="#3256d5"/><path d="M1594,987L1555,1096L1701,1094Z" fill="#1f48dc" stroke="#1f48dc"/><path d="M1594,987L1701,1094L1712,970Z" fill="#1541e0" stroke="#1541e0"/><path d="M1712,970L1701,1094L1840,983Z" fill="#0535e6" stroke="#0535e6"/><path d="M1840,983L1701,1094L1855,1135Z" fill="#002fea" stroke="#002fea"/><path d="M1840,983L1855,1135L1981,989Z" fill="#0022f1" stroke="#0022f1"/><path d="M1981,989L1855,1135L1975,1157Z" fill="#001bf4" stroke="#001bf4"/><path d="M-45,1176L662,1170L556,1150Z" fill="#7f58b7" stroke="#7f58b7"/><path d="M-45,1176L556,1150L423,1097Z" fill="#7e4cb0" stroke="#7e4cb0"/><path d="M-45,1176L423,1097L225,1073Z" fill="#793cab" stroke="#793cab"/><path d="M-45,1176L225,1073L37,1092Z" fill="#702aa9" stroke="#702aa9"/><path d="M662,1170L1975,1157L1215,1161Z" fill="#5970ca" stroke="#5970ca"/><path d="M662,1170L1215,1161L1021,1153Z" fill="#797dd5" stroke="#797dd5"/><path d="M662,1170L1021,1153L794,1126Z" fill="#8080df" stroke="#8080df"/><path d="M1021,1153L1215,1161L1103,1142Z" fill="#717acc" stroke="#717acc"/><path d="M1215,1161L1975,1157L1855,1135Z" fill="#123fe1" stroke="#123fe1"/><path d="M1215,1161L1855,1135L1391,1128Z" fill="#375bd2" stroke="#375bd2"/><path d="M1391,1128L1855,1135L1555,1096Z" fill="#224bdb" stroke="#224bdb"/><path d="M1555,1096L1855,1135L1701,1094Z" fill="#0e3ce3" stroke="#0e3ce3"/></g></svg>